<?xml version="1.0" encoding="UTF-8" standalone="no"?>
<!DOCTYPE svg PUBLIC "-//W3C//DTD SVG 1.1//EN"
 "http://www.w3.org/Graphics/SVG/1.1/DTD/svg11.dtd">
<!-- Generated by graphviz version 2.40.1 (20161225.0304)
 -->
<!-- Title: dependencies Pages: 1 -->
<svg width="504pt" height="211pt"
 viewBox="0.00 0.00 504.00 211.00" xmlns="http://www.w3.org/2000/svg" xmlns:xlink="http://www.w3.org/1999/xlink">
<g id="graph0" class="graph" transform="scale(1 1) rotate(0) translate(4 207)">
<title>dependencies</title>
<polygon fill="#ffffff" stroke="transparent" points="-4,4 -4,-207 500,-207 500,4 -4,4"/>
<text text-anchor="start" x="227.0091" y="-42.4" font-family="sans-serif" font-weight="bold" font-size="14.00" fill="#000000">Legend</text>
<polygon fill="#ffffb3" stroke="transparent" points="14,-10 14,-30 34,-30 34,-10 14,-10"/>
<text text-anchor="start" x="37.629" y="-15.4" font-family="sans-serif" font-size="14.00" fill="#000000"> &#160;Declarations</text>
<polygon fill="#8dd3c7" stroke="transparent" points="127,-10 127,-30 147,-30 147,-10 127,-10"/>
<text text-anchor="start" x="150.7251" y="-15.4" font-family="sans-serif" font-size="14.00" fill="#000000"> &#160;Module</text>
<polygon fill="#80b1d3" stroke="transparent" points="213,-10 213,-30 233,-30 233,-10 213,-10"/>
<text text-anchor="start" x="236.7812" y="-15.4" font-family="sans-serif" font-size="14.00" fill="#000000"> &#160;Bootstrap</text>
<polygon fill="#fdb462" stroke="transparent" points="310,-10 310,-30 330,-30 330,-10 310,-10"/>
<text text-anchor="start" x="333.6732" y="-15.4" font-family="sans-serif" font-size="14.00" fill="#000000"> &#160;Providers</text>
<polygon fill="#fb8072" stroke="transparent" points="406,-10 406,-30 426,-30 426,-10 406,-10"/>
<text text-anchor="start" x="429.7258" y="-15.4" font-family="sans-serif" font-size="14.00" fill="#000000"> &#160;Exports</text>
<g id="clust1" class="cluster">
<title>cluster_TimeModule</title>
<polygon fill="none" stroke="#000000" stroke-dasharray="1,5" points="114,-70 114,-195 382,-195 382,-70 114,-70"/>
</g>
<g id="clust3" class="cluster">
<title>cluster_TimeModule_imports</title>
<polygon fill="none" stroke="#000000" points="266,-78 266,-130 374,-130 374,-78 266,-78"/>
</g>
<g id="clust6" class="cluster">
<title>cluster_TimeModule_providers</title>
<polygon fill="none" stroke="#000000" points="122,-78 122,-130 258,-130 258,-78 122,-78"/>
</g>
<!-- UsersModule -->
<g id="node1" class="node">
<title>UsersModule</title>
<polygon fill="#8dd3c7" stroke="#000000" points="365.9218,-122 362.9218,-126 341.9218,-126 338.9218,-122 274.0782,-122 274.0782,-86 365.9218,-86 365.9218,-122"/>
<text text-anchor="middle" x="320" y="-99.8" font-family="Times,serif" font-size="14.00" fill="#000000">UsersModule</text>
</g>
<!-- TimeModule -->
<g id="node2" class="node">
<title>TimeModule</title>
<polygon fill="#8dd3c7" stroke="#000000" points="299.5983,-187 296.5983,-191 275.5983,-191 272.5983,-187 210.4017,-187 210.4017,-151 299.5983,-151 299.5983,-187"/>
<text text-anchor="middle" x="255" y="-164.8" font-family="Times,serif" font-size="14.00" fill="#000000">TimeModule</text>
</g>
<!-- UsersModule&#45;&gt;TimeModule -->
<g id="edge1" class="edge">
<title>UsersModule&#45;&gt;TimeModule</title>
<path fill="none" stroke="#000000" d="M286.9194,-122.1061C286.9194,-122.1061 286.9194,-140.991 286.9194,-140.991"/>
<polygon fill="#000000" stroke="#000000" points="283.4194,-140.9909 286.9194,-150.991 290.4194,-140.991 283.4194,-140.9909"/>
</g>
<!-- TimeService -->
<g id="node3" class="node">
<title>TimeService</title>
<ellipse fill="#fdb462" stroke="#000000" cx="190" cy="-104" rx="60.2479" ry="18"/>
<text text-anchor="middle" x="190" y="-99.8" font-family="Times,serif" font-size="14.00" fill="#000000">TimeService</text>
</g>
<!-- TimeService&#45;&gt;TimeModule -->
<g id="edge2" class="edge">
<title>TimeService&#45;&gt;TimeModule</title>
<path fill="none" stroke="#000000" d="M230.4124,-117.468C230.4124,-117.468 230.4124,-140.8642 230.4124,-140.8642"/>
<polygon fill="#000000" stroke="#000000" points="226.9125,-140.8641 230.4124,-150.8642 233.9125,-140.8642 226.9125,-140.8641"/>
</g>
</g>
</svg>
