<?xml version="1.0" encoding="UTF-8" standalone="no"?>
<!DOCTYPE svg PUBLIC "-//W3C//DTD SVG 1.1//EN"
 "http://www.w3.org/Graphics/SVG/1.1/DTD/svg11.dtd">
<!-- Generated by graphviz version 2.40.1 (20161225.0304)
 -->
<!-- Title: dependencies Pages: 1 -->
<svg width="547pt" height="363pt"
 viewBox="0.00 0.00 547.00 363.00" xmlns="http://www.w3.org/2000/svg" xmlns:xlink="http://www.w3.org/1999/xlink">
<g id="graph0" class="graph" transform="scale(1 1) rotate(0) translate(4 359)">
<title>dependencies</title>
<polygon fill="#ffffff" stroke="transparent" points="-4,4 -4,-359 543,-359 543,4 -4,4"/>
<text text-anchor="start" x="248.5091" y="-42.4" font-family="sans-serif" font-weight="bold" font-size="14.00" fill="#000000">Legend</text>
<polygon fill="#ffffb3" stroke="transparent" points="35.5,-10 35.5,-30 55.5,-30 55.5,-10 35.5,-10"/>
<text text-anchor="start" x="59.129" y="-15.4" font-family="sans-serif" font-size="14.00" fill="#000000"> &#160;Declarations</text>
<polygon fill="#8dd3c7" stroke="transparent" points="148.5,-10 148.5,-30 168.5,-30 168.5,-10 148.5,-10"/>
<text text-anchor="start" x="172.2251" y="-15.4" font-family="sans-serif" font-size="14.00" fill="#000000"> &#160;Module</text>
<polygon fill="#80b1d3" stroke="transparent" points="234.5,-10 234.5,-30 254.5,-30 254.5,-10 234.5,-10"/>
<text text-anchor="start" x="258.2812" y="-15.4" font-family="sans-serif" font-size="14.00" fill="#000000"> &#160;Bootstrap</text>
<polygon fill="#fdb462" stroke="transparent" points="331.5,-10 331.5,-30 351.5,-30 351.5,-10 331.5,-10"/>
<text text-anchor="start" x="355.1732" y="-15.4" font-family="sans-serif" font-size="14.00" fill="#000000"> &#160;Providers</text>
<polygon fill="#fb8072" stroke="transparent" points="427.5,-10 427.5,-30 447.5,-30 447.5,-10 427.5,-10"/>
<text text-anchor="start" x="451.2258" y="-15.4" font-family="sans-serif" font-size="14.00" fill="#000000"> &#160;Exports</text>
<g id="clust1" class="cluster">
<title>cluster_AppModule</title>
<polygon fill="none" stroke="#000000" stroke-dasharray="1,5" points="168,-146 168,-347 397,-347 397,-146 168,-146"/>
</g>
<g id="clust3" class="cluster">
<title>cluster_AppModule_imports</title>
<polygon fill="none" stroke="#000000" points="176,-154 176,-282 389,-282 389,-154 176,-154"/>
</g>
<g id="clust7" class="cluster">
<title>cluster_AuthModule</title>
<polygon fill="none" stroke="#000000" stroke-dasharray="1,5" points="121,-70 121,-138 413,-138 413,-70 121,-70"/>
</g>
<g id="clust12" class="cluster">
<title>cluster_AuthModule_providers</title>
<polygon fill="none" stroke="#000000" points="129,-78 129,-130 405,-130 405,-78 129,-78"/>
</g>
<g id="clust13" class="cluster">
<title>cluster_TimeModule</title>
<polygon fill="none" stroke="#000000" stroke-dasharray="1,5" points="8,-146 8,-214 160,-214 160,-146 8,-146"/>
</g>
<g id="clust18" class="cluster">
<title>cluster_TimeModule_providers</title>
<polygon fill="none" stroke="#000000" points="16,-154 16,-206 152,-206 152,-154 16,-154"/>
</g>
<g id="clust19" class="cluster">
<title>cluster_UsersModule</title>
<polygon fill="none" stroke="#000000" stroke-dasharray="1,5" points="405,-222 405,-290 531,-290 531,-222 405,-222"/>
</g>
<g id="clust22" class="cluster">
<title>cluster_UsersModule_exports</title>
<polygon fill="none" stroke="#000000" points="413,-230 413,-282 523,-282 523,-230 413,-230"/>
</g>
<!-- AuthModule -->
<g id="node1" class="node">
<title>AuthModule</title>
<polygon fill="#8dd3c7" stroke="#000000" points="271.5482,-198 268.5482,-202 247.5482,-202 244.5482,-198 184.4518,-198 184.4518,-162 271.5482,-162 271.5482,-198"/>
<text text-anchor="middle" x="228" y="-175.8" font-family="Times,serif" font-size="14.00" fill="#000000">AuthModule</text>
</g>
<!-- AppModule -->
<g id="node4" class="node">
<title>AppModule</title>
<polygon fill="#8dd3c7" stroke="#000000" points="345.6571,-339 342.6571,-343 321.6571,-343 318.6571,-339 262.3429,-339 262.3429,-303 345.6571,-303 345.6571,-339"/>
<text text-anchor="middle" x="304" y="-316.8" font-family="Times,serif" font-size="14.00" fill="#000000">AppModule</text>
</g>
<!-- AuthModule&#45;&gt;AppModule -->
<g id="edge1" class="edge">
<title>AuthModule&#45;&gt;AppModule</title>
<path fill="none" stroke="#000000" d="M189.8387,-198.1446C189.8387,-236.2265 189.8387,-321 189.8387,-321 189.8387,-321 252.1388,-321 252.1388,-321"/>
<polygon fill="#000000" stroke="#000000" points="252.1388,-324.5001 262.1388,-321 252.1388,-317.5001 252.1388,-324.5001"/>
</g>
<!-- TimeModule -->
<g id="node2" class="node">
<title>TimeModule</title>
<polygon fill="#8dd3c7" stroke="#000000" points="284.5983,-274 281.5983,-278 260.5983,-278 257.5983,-274 195.4017,-274 195.4017,-238 284.5983,-238 284.5983,-274"/>
<text text-anchor="middle" x="240" y="-251.8" font-family="Times,serif" font-size="14.00" fill="#000000">TimeModule</text>
</g>
<!-- TimeModule&#45;&gt;AppModule -->
<g id="edge2" class="edge">
<title>TimeModule&#45;&gt;AppModule</title>
<path fill="none" stroke="#000000" d="M273.3605,-274.1061C273.3605,-274.1061 273.3605,-292.991 273.3605,-292.991"/>
<polygon fill="#000000" stroke="#000000" points="269.8605,-292.9909 273.3605,-302.991 276.8605,-292.991 269.8605,-292.9909"/>
</g>
<!-- UsersModule -->
<g id="node3" class="node">
<title>UsersModule</title>
<polygon fill="#8dd3c7" stroke="#000000" points="380.9218,-198 377.9218,-202 356.9218,-202 353.9218,-198 289.0782,-198 289.0782,-162 380.9218,-162 380.9218,-198"/>
<text text-anchor="middle" x="335" y="-175.8" font-family="Times,serif" font-size="14.00" fill="#000000">UsersModule</text>
</g>
<!-- UsersModule&#45;&gt;TimeModule -->
<g id="edge6" class="edge">
<title>UsersModule&#45;&gt;TimeModule</title>
<path fill="none" stroke="#000000" d="M289.1906,-186C284.1007,-186 280.7074,-186 280.7074,-186 280.7074,-186 280.7074,-227.9733 280.7074,-227.9733"/>
<polygon fill="#000000" stroke="#000000" points="277.2075,-227.9732 280.7074,-237.9733 284.2075,-227.9733 277.2075,-227.9732"/>
</g>
<!-- UsersModule&#45;&gt;AppModule -->
<g id="edge3" class="edge">
<title>UsersModule&#45;&gt;AppModule</title>
<path fill="none" stroke="#000000" d="M317.5589,-198.1446C317.5589,-198.1446 317.5589,-292.925 317.5589,-292.925"/>
<polygon fill="#000000" stroke="#000000" points="314.059,-292.925 317.5589,-302.925 321.059,-292.925 314.059,-292.925"/>
</g>
<!-- UsersService  -->
<g id="node8" class="node">
<title>UsersService </title>
<polygon fill="#fb8072" stroke="#000000" points="514.8493,-274 421.1507,-274 421.1507,-238 514.8493,-238 514.8493,-274"/>
<text text-anchor="middle" x="468" y="-251.8" font-family="Times,serif" font-size="14.00" fill="#000000">UsersService </text>
</g>
<!-- UsersModule&#45;&gt;UsersService  -->
<g id="edge8" class="edge">
<title>UsersModule&#45;&gt;UsersService </title>
<path fill="none" stroke="#000000" stroke-dasharray="5,2" d="M363.2693,-198.0109C363.2693,-220.4852 363.2693,-256 363.2693,-256 363.2693,-256 411.1485,-256 411.1485,-256"/>
<polygon fill="#000000" stroke="#000000" points="411.1485,-259.5001 421.1485,-256 411.1484,-252.5001 411.1485,-259.5001"/>
</g>
<!-- AuthService -->
<g id="node5" class="node">
<title>AuthService</title>
<ellipse fill="#fdb462" stroke="#000000" cx="196" cy="-104" rx="59.1083" ry="18"/>
<text text-anchor="middle" x="196" y="-99.8" font-family="Times,serif" font-size="14.00" fill="#000000">AuthService</text>
</g>
<!-- AuthService&#45;&gt;AuthModule -->
<g id="edge4" class="edge">
<title>AuthService&#45;&gt;AuthModule</title>
<path fill="none" stroke="#000000" d="M219.7652,-120.8669C219.7652,-120.8669 219.7652,-151.8535 219.7652,-151.8535"/>
<polygon fill="#000000" stroke="#000000" points="216.2653,-151.8534 219.7652,-161.8535 223.2653,-151.8535 216.2653,-151.8534"/>
</g>
<!-- UsersService -->
<g id="node6" class="node">
<title>UsersService</title>
<ellipse fill="#fdb462" stroke="#000000" cx="335" cy="-104" rx="61.9519" ry="18"/>
<text text-anchor="middle" x="335" y="-99.8" font-family="Times,serif" font-size="14.00" fill="#000000">UsersService</text>
</g>
<!-- UsersService&#45;&gt;AuthModule -->
<g id="edge5" class="edge">
<title>UsersService&#45;&gt;AuthModule</title>
<path fill="none" stroke="#000000" d="M276.8657,-110.46C276.8657,-127.7891 276.8657,-174 276.8657,-174 276.8657,-174 276.3428,-174 276.3428,-174"/>
<polygon fill="#000000" stroke="#000000" points="281.6363,-170.5002 271.6363,-174 281.6362,-177.5002 281.6363,-170.5002"/>
</g>
<!-- UsersService&#45;&gt;UsersModule -->
<g id="edge9" class="edge">
<title>UsersService&#45;&gt;UsersModule</title>
<path fill="none" stroke="#000000" d="M335,-122.0109C335,-122.0109 335,-151.855 335,-151.855"/>
<polygon fill="#000000" stroke="#000000" points="331.5001,-151.8549 335,-161.855 338.5001,-151.855 331.5001,-151.8549"/>
</g>
<!-- TimeService -->
<g id="node7" class="node">
<title>TimeService</title>
<ellipse fill="#fdb462" stroke="#000000" cx="84" cy="-180" rx="60.2479" ry="18"/>
<text text-anchor="middle" x="84" y="-175.8" font-family="Times,serif" font-size="14.00" fill="#000000">TimeService</text>
</g>
<!-- TimeService&#45;&gt;TimeModule -->
<g id="edge7" class="edge">
<title>TimeService&#45;&gt;TimeModule</title>
<path fill="none" stroke="#000000" d="M84,-198.0109C84,-220.4852 84,-256 84,-256 84,-256 185.2967,-256 185.2967,-256"/>
<polygon fill="#000000" stroke="#000000" points="185.2967,-259.5001 195.2967,-256 185.2966,-252.5001 185.2967,-259.5001"/>
</g>
</g>
</svg>
