<?xml version="1.0" encoding="UTF-8" standalone="no"?>
<!DOCTYPE svg PUBLIC "-//W3C//DTD SVG 1.1//EN"
 "http://www.w3.org/Graphics/SVG/1.1/DTD/svg11.dtd">
<!-- Generated by graphviz version 2.40.1 (20161225.0304)
 -->
<!-- Title: dependencies Pages: 1 -->
<svg width="504pt" height="211pt"
 viewBox="0.00 0.00 504.00 211.00" xmlns="http://www.w3.org/2000/svg" xmlns:xlink="http://www.w3.org/1999/xlink">
<g id="graph0" class="graph" transform="scale(1 1) rotate(0) translate(4 207)">
<title>dependencies</title>
<polygon fill="#ffffff" stroke="transparent" points="-4,4 -4,-207 500,-207 500,4 -4,4"/>
<text text-anchor="start" x="227.0091" y="-42.4" font-family="sans-serif" font-weight="bold" font-size="14.00" fill="#000000">Legend</text>
<polygon fill="#ffffb3" stroke="transparent" points="14,-10 14,-30 34,-30 34,-10 14,-10"/>
<text text-anchor="start" x="37.629" y="-15.4" font-family="sans-serif" font-size="14.00" fill="#000000"> &#160;Declarations</text>
<polygon fill="#8dd3c7" stroke="transparent" points="127,-10 127,-30 147,-30 147,-10 127,-10"/>
<text text-anchor="start" x="150.7251" y="-15.4" font-family="sans-serif" font-size="14.00" fill="#000000"> &#160;Module</text>
<polygon fill="#80b1d3" stroke="transparent" points="213,-10 213,-30 233,-30 233,-10 213,-10"/>
<text text-anchor="start" x="236.7812" y="-15.4" font-family="sans-serif" font-size="14.00" fill="#000000"> &#160;Bootstrap</text>
<polygon fill="#fdb462" stroke="transparent" points="310,-10 310,-30 330,-30 330,-10 310,-10"/>
<text text-anchor="start" x="333.6732" y="-15.4" font-family="sans-serif" font-size="14.00" fill="#000000"> &#160;Providers</text>
<polygon fill="#fb8072" stroke="transparent" points="406,-10 406,-30 426,-30 426,-10 406,-10"/>
<text text-anchor="start" x="429.7258" y="-15.4" font-family="sans-serif" font-size="14.00" fill="#000000"> &#160;Exports</text>
<g id="clust1" class="cluster">
<title>cluster_AppModule</title>
<polygon fill="none" stroke="#000000" stroke-dasharray="1,5" points="80,-70 80,-195 416,-195 416,-70 80,-70"/>
</g>
<g id="clust3" class="cluster">
<title>cluster_AppModule_imports</title>
<polygon fill="none" stroke="#000000" points="88,-78 88,-130 408,-130 408,-78 88,-78"/>
</g>
<!-- AuthModule -->
<g id="node1" class="node">
<title>AuthModule</title>
<polygon fill="#8dd3c7" stroke="#000000" points="399.5482,-122 396.5482,-126 375.5482,-126 372.5482,-122 312.4518,-122 312.4518,-86 399.5482,-86 399.5482,-122"/>
<text text-anchor="middle" x="356" y="-99.8" font-family="Times,serif" font-size="14.00" fill="#000000">AuthModule</text>
</g>
<!-- AppModule -->
<g id="node4" class="node">
<title>AppModule</title>
<polygon fill="#8dd3c7" stroke="#000000" points="291.6571,-187 288.6571,-191 267.6571,-191 264.6571,-187 208.3429,-187 208.3429,-151 291.6571,-151 291.6571,-187"/>
<text text-anchor="middle" x="250" y="-164.8" font-family="Times,serif" font-size="14.00" fill="#000000">AppModule</text>
</g>
<!-- AuthModule&#45;&gt;AppModule -->
<g id="edge1" class="edge">
<title>AuthModule&#45;&gt;AppModule</title>
<path fill="none" stroke="#000000" d="M356,-122.1061C356,-141.3391 356,-169 356,-169 356,-169 301.894,-169 301.894,-169"/>
<polygon fill="#000000" stroke="#000000" points="301.894,-165.5001 291.894,-169 301.894,-172.5001 301.894,-165.5001"/>
</g>
<!-- TimeModule -->
<g id="node2" class="node">
<title>TimeModule</title>
<polygon fill="#8dd3c7" stroke="#000000" points="294.5983,-122 291.5983,-126 270.5983,-126 267.5983,-122 205.4017,-122 205.4017,-86 294.5983,-86 294.5983,-122"/>
<text text-anchor="middle" x="250" y="-99.8" font-family="Times,serif" font-size="14.00" fill="#000000">TimeModule</text>
</g>
<!-- TimeModule&#45;&gt;AppModule -->
<g id="edge2" class="edge">
<title>TimeModule&#45;&gt;AppModule</title>
<path fill="none" stroke="#000000" d="M250,-122.1061C250,-122.1061 250,-140.991 250,-140.991"/>
<polygon fill="#000000" stroke="#000000" points="246.5001,-140.9909 250,-150.991 253.5001,-140.991 246.5001,-140.9909"/>
</g>
<!-- UsersModule -->
<g id="node3" class="node">
<title>UsersModule</title>
<polygon fill="#8dd3c7" stroke="#000000" points="187.9218,-122 184.9218,-126 163.9218,-126 160.9218,-122 96.0782,-122 96.0782,-86 187.9218,-86 187.9218,-122"/>
<text text-anchor="middle" x="142" y="-99.8" font-family="Times,serif" font-size="14.00" fill="#000000">UsersModule</text>
</g>
<!-- UsersModule&#45;&gt;AppModule -->
<g id="edge3" class="edge">
<title>UsersModule&#45;&gt;AppModule</title>
<path fill="none" stroke="#000000" d="M142,-122.1061C142,-141.3391 142,-169 142,-169 142,-169 198.2444,-169 198.2444,-169"/>
<polygon fill="#000000" stroke="#000000" points="198.2444,-172.5001 208.2444,-169 198.2443,-165.5001 198.2444,-172.5001"/>
</g>
</g>
</svg>
