<?xml version="1.0" encoding="UTF-8" standalone="no"?>
<!DOCTYPE svg PUBLIC "-//W3C//DTD SVG 1.1//EN"
 "http://www.w3.org/Graphics/SVG/1.1/DTD/svg11.dtd">
<!-- Generated by graphviz version 2.40.1 (20161225.0304)
 -->
<!-- Title: dependencies Pages: 1 -->
<svg width="685pt" height="363pt"
 viewBox="0.00 0.00 685.00 363.00" xmlns="http://www.w3.org/2000/svg" xmlns:xlink="http://www.w3.org/1999/xlink">
<g id="graph0" class="graph" transform="scale(1 1) rotate(0) translate(4 359)">
<title>dependencies</title>
<polygon fill="#ffffff" stroke="transparent" points="-4,4 -4,-359 681,-359 681,4 -4,4"/>
<text text-anchor="start" x="317.5091" y="-42.4" font-family="sans-serif" font-weight="bold" font-size="14.00" fill="#000000">Legend</text>
<polygon fill="#ffffb3" stroke="transparent" points="104.5,-10 104.5,-30 124.5,-30 124.5,-10 104.5,-10"/>
<text text-anchor="start" x="128.129" y="-15.4" font-family="sans-serif" font-size="14.00" fill="#000000"> &#160;Declarations</text>
<polygon fill="#8dd3c7" stroke="transparent" points="217.5,-10 217.5,-30 237.5,-30 237.5,-10 217.5,-10"/>
<text text-anchor="start" x="241.2251" y="-15.4" font-family="sans-serif" font-size="14.00" fill="#000000"> &#160;Module</text>
<polygon fill="#80b1d3" stroke="transparent" points="303.5,-10 303.5,-30 323.5,-30 323.5,-10 303.5,-10"/>
<text text-anchor="start" x="327.2812" y="-15.4" font-family="sans-serif" font-size="14.00" fill="#000000"> &#160;Bootstrap</text>
<polygon fill="#fdb462" stroke="transparent" points="400.5,-10 400.5,-30 420.5,-30 420.5,-10 400.5,-10"/>
<text text-anchor="start" x="424.1732" y="-15.4" font-family="sans-serif" font-size="14.00" fill="#000000"> &#160;Providers</text>
<polygon fill="#fb8072" stroke="transparent" points="496.5,-10 496.5,-30 516.5,-30 516.5,-10 496.5,-10"/>
<text text-anchor="start" x="520.2258" y="-15.4" font-family="sans-serif" font-size="14.00" fill="#000000"> &#160;Exports</text>
<g id="clust1" class="cluster">
<title>cluster_AppModule</title>
<polygon fill="none" stroke="#000000" stroke-dasharray="1,5" points="168,-146 168,-347 535,-347 535,-146 168,-146"/>
</g>
<g id="clust3" class="cluster">
<title>cluster_AppModule_imports</title>
<polygon fill="none" stroke="#000000" points="314,-154 314,-282 527,-282 527,-154 314,-154"/>
</g>
<g id="clust6" class="cluster">
<title>cluster_AppModule_providers</title>
<polygon fill="none" stroke="#000000" points="176,-230 176,-282 306,-282 306,-230 176,-230"/>
</g>
<g id="clust7" class="cluster">
<title>cluster_AuthModule</title>
<polygon fill="none" stroke="#000000" stroke-dasharray="1,5" points="259,-70 259,-138 551,-138 551,-70 259,-70"/>
</g>
<g id="clust12" class="cluster">
<title>cluster_AuthModule_providers</title>
<polygon fill="none" stroke="#000000" points="267,-78 267,-130 543,-130 543,-78 267,-78"/>
</g>
<g id="clust13" class="cluster">
<title>cluster_TimeModule</title>
<polygon fill="none" stroke="#000000" stroke-dasharray="1,5" points="8,-146 8,-214 160,-214 160,-146 8,-146"/>
</g>
<g id="clust18" class="cluster">
<title>cluster_TimeModule_providers</title>
<polygon fill="none" stroke="#000000" points="16,-154 16,-206 152,-206 152,-154 16,-154"/>
</g>
<g id="clust19" class="cluster">
<title>cluster_UsersModule</title>
<polygon fill="none" stroke="#000000" stroke-dasharray="1,5" points="543,-222 543,-290 669,-290 669,-222 543,-222"/>
</g>
<g id="clust22" class="cluster">
<title>cluster_UsersModule_exports</title>
<polygon fill="none" stroke="#000000" points="551,-230 551,-282 661,-282 661,-230 551,-230"/>
</g>
<!-- AuthModule -->
<g id="node1" class="node">
<title>AuthModule</title>
<polygon fill="#8dd3c7" stroke="#000000" points="409.5482,-198 406.5482,-202 385.5482,-202 382.5482,-198 322.4518,-198 322.4518,-162 409.5482,-162 409.5482,-198"/>
<text text-anchor="middle" x="366" y="-175.8" font-family="Times,serif" font-size="14.00" fill="#000000">AuthModule</text>
</g>
<!-- AppModule -->
<g id="node4" class="node">
<title>AppModule</title>
<polygon fill="#8dd3c7" stroke="#000000" points="440.6571,-339 437.6571,-343 416.6571,-343 413.6571,-339 357.3429,-339 357.3429,-303 440.6571,-303 440.6571,-339"/>
<text text-anchor="middle" x="399" y="-316.8" font-family="Times,serif" font-size="14.00" fill="#000000">AppModule</text>
</g>
<!-- AuthModule&#45;&gt;AppModule -->
<g id="edge1" class="edge">
<title>AuthModule&#45;&gt;AppModule</title>
<path fill="none" stroke="#000000" d="M409.733,-186C414.0056,-186 416.7959,-186 416.7959,-186 416.7959,-186 416.7959,-292.7933 416.7959,-292.7933"/>
<polygon fill="#000000" stroke="#000000" points="413.296,-292.7933 416.7959,-302.7933 420.296,-292.7933 413.296,-292.7933"/>
</g>
<!-- TimeModule -->
<g id="node2" class="node">
<title>TimeModule</title>
<polygon fill="#8dd3c7" stroke="#000000" points="411.5983,-274 408.5983,-278 387.5983,-278 384.5983,-274 322.4017,-274 322.4017,-238 411.5983,-238 411.5983,-274"/>
<text text-anchor="middle" x="367" y="-251.8" font-family="Times,serif" font-size="14.00" fill="#000000">TimeModule</text>
</g>
<!-- TimeModule&#45;&gt;AppModule -->
<g id="edge2" class="edge">
<title>TimeModule&#45;&gt;AppModule</title>
<path fill="none" stroke="#000000" d="M384.3605,-274.1061C384.3605,-274.1061 384.3605,-292.991 384.3605,-292.991"/>
<polygon fill="#000000" stroke="#000000" points="380.8605,-292.9909 384.3605,-302.991 387.8605,-292.991 380.8605,-292.9909"/>
</g>
<!-- UsersModule -->
<g id="node3" class="node">
<title>UsersModule</title>
<polygon fill="#8dd3c7" stroke="#000000" points="518.9218,-198 515.9218,-202 494.9218,-202 491.9218,-198 427.0782,-198 427.0782,-162 518.9218,-162 518.9218,-198"/>
<text text-anchor="middle" x="473" y="-175.8" font-family="Times,serif" font-size="14.00" fill="#000000">UsersModule</text>
</g>
<!-- UsersModule&#45;&gt;TimeModule -->
<g id="edge7" class="edge">
<title>UsersModule&#45;&gt;TimeModule</title>
<path fill="none" stroke="#000000" d="M431.8025,-198.1985C431.8025,-222.3563 431.8025,-262 431.8025,-262 431.8025,-262 421.6538,-262 421.6538,-262"/>
<polygon fill="#000000" stroke="#000000" points="421.6538,-258.5001 411.6538,-262 421.6537,-265.5001 421.6538,-258.5001"/>
</g>
<!-- UsersModule&#45;&gt;AppModule -->
<g id="edge3" class="edge">
<title>UsersModule&#45;&gt;AppModule</title>
<path fill="none" stroke="#000000" d="M436.3153,-198.1446C436.3153,-198.1446 436.3153,-292.925 436.3153,-292.925"/>
<polygon fill="#000000" stroke="#000000" points="432.8154,-292.925 436.3153,-302.925 439.8154,-292.925 432.8154,-292.925"/>
</g>
<!-- UsersService  -->
<g id="node9" class="node">
<title>UsersService </title>
<polygon fill="#fb8072" stroke="#000000" points="652.8493,-274 559.1507,-274 559.1507,-238 652.8493,-238 652.8493,-274"/>
<text text-anchor="middle" x="606" y="-251.8" font-family="Times,serif" font-size="14.00" fill="#000000">UsersService </text>
</g>
<!-- UsersModule&#45;&gt;UsersService  -->
<g id="edge9" class="edge">
<title>UsersModule&#45;&gt;UsersService </title>
<path fill="none" stroke="#000000" stroke-dasharray="5,2" d="M479.7693,-198.0267C479.7693,-218.7672 479.7693,-250 479.7693,-250 479.7693,-250 548.9963,-250 548.9963,-250"/>
<polygon fill="#000000" stroke="#000000" points="548.9964,-253.5001 558.9963,-250 548.9963,-246.5001 548.9964,-253.5001"/>
</g>
<!-- AppService -->
<g id="node5" class="node">
<title>AppService</title>
<ellipse fill="#fdb462" stroke="#000000" cx="241" cy="-256" rx="56.7406" ry="18"/>
<text text-anchor="middle" x="241" y="-251.8" font-family="Times,serif" font-size="14.00" fill="#000000">AppService</text>
</g>
<!-- AppService&#45;&gt;AppModule -->
<g id="edge4" class="edge">
<title>AppService&#45;&gt;AppModule</title>
<path fill="none" stroke="#000000" d="M241,-274.1061C241,-293.3391 241,-321 241,-321 241,-321 347.0737,-321 347.0737,-321"/>
<polygon fill="#000000" stroke="#000000" points="347.0738,-324.5001 357.0737,-321 347.0737,-317.5001 347.0738,-324.5001"/>
</g>
<!-- AuthService -->
<g id="node6" class="node">
<title>AuthService</title>
<ellipse fill="#fdb462" stroke="#000000" cx="334" cy="-104" rx="59.1083" ry="18"/>
<text text-anchor="middle" x="334" y="-99.8" font-family="Times,serif" font-size="14.00" fill="#000000">AuthService</text>
</g>
<!-- AuthService&#45;&gt;AuthModule -->
<g id="edge5" class="edge">
<title>AuthService&#45;&gt;AuthModule</title>
<path fill="none" stroke="#000000" d="M357.7652,-120.8669C357.7652,-120.8669 357.7652,-151.8535 357.7652,-151.8535"/>
<polygon fill="#000000" stroke="#000000" points="354.2653,-151.8534 357.7652,-161.8535 361.2653,-151.8535 354.2653,-151.8534"/>
</g>
<!-- UsersService -->
<g id="node7" class="node">
<title>UsersService</title>
<ellipse fill="#fdb462" stroke="#000000" cx="473" cy="-104" rx="61.9519" ry="18"/>
<text text-anchor="middle" x="473" y="-99.8" font-family="Times,serif" font-size="14.00" fill="#000000">UsersService</text>
</g>
<!-- UsersService&#45;&gt;AuthModule -->
<g id="edge6" class="edge">
<title>UsersService&#45;&gt;AuthModule</title>
<path fill="none" stroke="#000000" d="M422.0428,-114.3287C422.0428,-133.8004 422.0428,-174 422.0428,-174 422.0428,-174 419.6051,-174 419.6051,-174"/>
<polygon fill="#000000" stroke="#000000" points="419.6051,-170.5001 409.6051,-174 419.605,-177.5001 419.6051,-170.5001"/>
</g>
<!-- UsersService&#45;&gt;UsersModule -->
<g id="edge10" class="edge">
<title>UsersService&#45;&gt;UsersModule</title>
<path fill="none" stroke="#000000" d="M473,-122.0109C473,-122.0109 473,-151.855 473,-151.855"/>
<polygon fill="#000000" stroke="#000000" points="469.5001,-151.8549 473,-161.855 476.5001,-151.855 469.5001,-151.8549"/>
</g>
<!-- TimeService -->
<g id="node8" class="node">
<title>TimeService</title>
<ellipse fill="#fdb462" stroke="#000000" cx="84" cy="-180" rx="60.2479" ry="18"/>
<text text-anchor="middle" x="84" y="-175.8" font-family="Times,serif" font-size="14.00" fill="#000000">TimeService</text>
</g>
<!-- TimeService&#45;&gt;TimeModule -->
<g id="edge8" class="edge">
<title>TimeService&#45;&gt;TimeModule</title>
<path fill="none" stroke="#000000" d="M144.5433,-180C211.4645,-180 309.9233,-180 309.9233,-180 309.9233,-180 309.9233,-256 309.9233,-256 309.9233,-256 312.3081,-256 312.3081,-256"/>
<polygon fill="#000000" stroke="#000000" points="312.3082,-259.5001 322.3081,-256 312.3081,-252.5001 312.3082,-259.5001"/>
</g>
</g>
</svg>
